<mxfile host="app.diagrams.net" agent="Mozilla/5.0 (Windows NT 10.0; Win64; x64) AppleWebKit/537.36 (KHTML, like Gecko) Chrome/131.0.0.0 Safari/537.36" version="25.0.3">
  <diagram name="Página-1" id="P5ZmOvm6qGKokg71aS8p">
    <mxGraphModel dx="1880" dy="1314" grid="1" gridSize="10" guides="1" tooltips="1" connect="1" arrows="1" fold="1" page="1" pageScale="1" pageWidth="827" pageHeight="1169" math="0" shadow="0">
      <root>
        <mxCell id="0" />
        <mxCell id="1" parent="0" />
        <mxCell id="F_5CZEHVWxJ2lF3WmD1E-5" value="" style="rounded=0;whiteSpace=wrap;html=1;rotation=90;movable=0;resizable=0;rotatable=0;deletable=0;editable=0;locked=1;connectable=0;" vertex="1" parent="1">
          <mxGeometry x="-159.97" y="176.5" width="1147.15" height="814.06" as="geometry" />
        </mxCell>
        <mxCell id="F_5CZEHVWxJ2lF3WmD1E-2" value="&lt;font style=&quot;font-size: 30px;&quot;&gt;exercício proposto&lt;/font&gt;&lt;div&gt;&lt;font style=&quot;font-size: 30px;&quot;&gt;semana 02&lt;/font&gt;&lt;/div&gt;" style="text;html=1;align=center;verticalAlign=middle;whiteSpace=wrap;rounded=0;" vertex="1" parent="1">
          <mxGeometry x="198" y="30" width="431" height="90" as="geometry" />
        </mxCell>
        <mxCell id="F_5CZEHVWxJ2lF3WmD1E-26" value="" style="group" vertex="1" connectable="0" parent="1">
          <mxGeometry x="230.25" y="800" width="356.5" height="210" as="geometry" />
        </mxCell>
        <mxCell id="F_5CZEHVWxJ2lF3WmD1E-11" value="" style="strokeWidth=2;html=1;shape=mxgraph.flowchart.display;whiteSpace=wrap;fillColor=#bac8d3;strokeColor=#23445d;" vertex="1" parent="F_5CZEHVWxJ2lF3WmD1E-26">
          <mxGeometry width="339.75" height="210" as="geometry" />
        </mxCell>
        <mxCell id="F_5CZEHVWxJ2lF3WmD1E-24" value="&lt;p style=&quot;line-height: 160%;&quot;&gt;&lt;font face=&quot;Verdana&quot;&gt;&lt;span style=&quot;font-size: 20px;&quot;&gt;BEM VINDO(A)&lt;/span&gt;&lt;/font&gt;&lt;/p&gt;&lt;p style=&quot;line-height: 160%;&quot;&gt;&lt;font face=&quot;Verdana&quot;&gt;&lt;span style=&quot;font-size: 20px;&quot;&gt;NOME, ANO DE NASCIMENTO,&lt;/span&gt;&lt;/font&gt;&lt;/p&gt;&lt;p style=&quot;line-height: 160%;&quot;&gt;&lt;font face=&quot;Verdana&quot;&gt;&lt;span style=&quot;font-size: 20px;&quot;&gt;TIPO SANGUÍNEO,&lt;/span&gt;&lt;/font&gt;&lt;/p&gt;&lt;p style=&quot;line-height: 160%;&quot;&gt;&lt;font face=&quot;Verdana&quot;&gt;&lt;span style=&quot;font-size: 20px;&quot;&gt;RENDA MENSAL&lt;/span&gt;&lt;/font&gt;&lt;/p&gt;" style="text;html=1;align=center;verticalAlign=middle;whiteSpace=wrap;rounded=0;" vertex="1" parent="F_5CZEHVWxJ2lF3WmD1E-26">
          <mxGeometry y="10" width="356.5" height="190" as="geometry" />
        </mxCell>
        <mxCell id="F_5CZEHVWxJ2lF3WmD1E-35" value="" style="endArrow=classic;html=1;rounded=0;strokeWidth=2;entryX=0.5;entryY=0;entryDx=0;entryDy=0;" edge="1" parent="F_5CZEHVWxJ2lF3WmD1E-26" target="F_5CZEHVWxJ2lF3WmD1E-6">
          <mxGeometry width="50" height="50" relative="1" as="geometry">
            <mxPoint x="183.75" y="190" as="sourcePoint" />
            <mxPoint x="263.75" y="130" as="targetPoint" />
          </mxGeometry>
        </mxCell>
        <mxCell id="F_5CZEHVWxJ2lF3WmD1E-27" value="" style="group" vertex="1" connectable="0" parent="1">
          <mxGeometry x="308" y="670" width="201" height="80" as="geometry" />
        </mxCell>
        <mxCell id="F_5CZEHVWxJ2lF3WmD1E-9" value="" style="shape=parallelogram;html=1;strokeWidth=2;perimeter=parallelogramPerimeter;whiteSpace=wrap;rounded=1;arcSize=12;size=0.23;fillColor=#fad7ac;strokeColor=#b46504;" vertex="1" parent="F_5CZEHVWxJ2lF3WmD1E-27">
          <mxGeometry width="201" height="80" as="geometry" />
        </mxCell>
        <mxCell id="F_5CZEHVWxJ2lF3WmD1E-12" value="&lt;p&gt;&lt;font face=&quot;Verdana&quot; style=&quot;font-size: 20px;&quot;&gt;RENDA&lt;/font&gt;&lt;/p&gt;&lt;p&gt;&lt;font face=&quot;Verdana&quot; style=&quot;font-size: 20px;&quot;&gt;MENSAL&lt;/font&gt;&lt;/p&gt;" style="text;html=1;align=center;verticalAlign=middle;whiteSpace=wrap;rounded=0;" vertex="1" parent="F_5CZEHVWxJ2lF3WmD1E-27">
          <mxGeometry x="36" width="129" height="80" as="geometry" />
        </mxCell>
        <mxCell id="F_5CZEHVWxJ2lF3WmD1E-36" value="" style="endArrow=classic;html=1;rounded=0;strokeWidth=2;entryX=0.5;entryY=0;entryDx=0;entryDy=0;" edge="1" parent="F_5CZEHVWxJ2lF3WmD1E-27" target="F_5CZEHVWxJ2lF3WmD1E-24">
          <mxGeometry width="50" height="50" relative="1" as="geometry">
            <mxPoint x="102" y="80" as="sourcePoint" />
            <mxPoint x="182" y="20" as="targetPoint" />
          </mxGeometry>
        </mxCell>
        <mxCell id="F_5CZEHVWxJ2lF3WmD1E-28" value="" style="group" vertex="1" connectable="0" parent="1">
          <mxGeometry x="308" y="390" width="201" height="80" as="geometry" />
        </mxCell>
        <mxCell id="F_5CZEHVWxJ2lF3WmD1E-10" value="" style="shape=parallelogram;html=1;strokeWidth=2;perimeter=parallelogramPerimeter;whiteSpace=wrap;rounded=1;arcSize=12;size=0.23;fillColor=#fad7ac;strokeColor=#b46504;" vertex="1" parent="F_5CZEHVWxJ2lF3WmD1E-28">
          <mxGeometry width="201" height="80" as="geometry" />
        </mxCell>
        <mxCell id="F_5CZEHVWxJ2lF3WmD1E-13" value="&lt;p&gt;&lt;font face=&quot;Verdana&quot; style=&quot;font-size: 20px;&quot;&gt;ANO DE&lt;/font&gt;&lt;/p&gt;&lt;p&gt;&lt;font face=&quot;Verdana&quot; style=&quot;font-size: 20px;&quot;&gt;NASCIMENTO&lt;/font&gt;&lt;/p&gt;" style="text;html=1;align=center;verticalAlign=middle;whiteSpace=wrap;rounded=0;" vertex="1" parent="F_5CZEHVWxJ2lF3WmD1E-28">
          <mxGeometry x="10" width="161" height="75" as="geometry" />
        </mxCell>
        <mxCell id="F_5CZEHVWxJ2lF3WmD1E-38" value="" style="endArrow=classic;html=1;rounded=0;strokeWidth=2;" edge="1" parent="F_5CZEHVWxJ2lF3WmD1E-28">
          <mxGeometry width="50" height="50" relative="1" as="geometry">
            <mxPoint x="121" y="75" as="sourcePoint" />
            <mxPoint x="121" y="136" as="targetPoint" />
          </mxGeometry>
        </mxCell>
        <mxCell id="F_5CZEHVWxJ2lF3WmD1E-29" value="" style="group" vertex="1" connectable="0" parent="1">
          <mxGeometry x="308" y="260" width="201" height="80" as="geometry" />
        </mxCell>
        <mxCell id="F_5CZEHVWxJ2lF3WmD1E-8" value="" style="shape=parallelogram;html=1;strokeWidth=2;perimeter=parallelogramPerimeter;whiteSpace=wrap;rounded=1;arcSize=12;size=0.23;fillColor=#fad7ac;strokeColor=#b46504;" vertex="1" parent="F_5CZEHVWxJ2lF3WmD1E-29">
          <mxGeometry width="201" height="80" as="geometry" />
        </mxCell>
        <mxCell id="F_5CZEHVWxJ2lF3WmD1E-15" value="&lt;p&gt;&lt;font face=&quot;Verdana&quot; style=&quot;font-size: 20px;&quot;&gt;NOME&lt;/font&gt;&lt;/p&gt;" style="text;html=1;align=center;verticalAlign=middle;whiteSpace=wrap;rounded=0;" vertex="1" parent="F_5CZEHVWxJ2lF3WmD1E-29">
          <mxGeometry x="5.5" y="25" width="190" height="30" as="geometry" />
        </mxCell>
        <mxCell id="F_5CZEHVWxJ2lF3WmD1E-39" value="" style="endArrow=classic;html=1;rounded=0;strokeWidth=2;entryX=0.671;entryY=0.053;entryDx=0;entryDy=0;entryPerimeter=0;" edge="1" parent="F_5CZEHVWxJ2lF3WmD1E-29" target="F_5CZEHVWxJ2lF3WmD1E-13">
          <mxGeometry width="50" height="50" relative="1" as="geometry">
            <mxPoint x="121" y="70" as="sourcePoint" />
            <mxPoint x="201" y="10" as="targetPoint" />
          </mxGeometry>
        </mxCell>
        <mxCell id="F_5CZEHVWxJ2lF3WmD1E-30" value="" style="group" vertex="1" connectable="0" parent="1">
          <mxGeometry x="308" y="530" width="201" height="80" as="geometry" />
        </mxCell>
        <mxCell id="F_5CZEHVWxJ2lF3WmD1E-7" value="" style="shape=parallelogram;html=1;strokeWidth=2;perimeter=parallelogramPerimeter;whiteSpace=wrap;rounded=1;arcSize=12;size=0.23;fillColor=#fad7ac;strokeColor=#b46504;" vertex="1" parent="F_5CZEHVWxJ2lF3WmD1E-30">
          <mxGeometry width="201" height="80" as="geometry" />
        </mxCell>
        <mxCell id="F_5CZEHVWxJ2lF3WmD1E-14" value="&lt;p&gt;&lt;font face=&quot;Verdana&quot; style=&quot;font-size: 20px;&quot;&gt;&amp;nbsp; &amp;nbsp; &amp;nbsp;TIPO&lt;/font&gt;&lt;/p&gt;&lt;p&gt;&lt;font face=&quot;Verdana&quot; style=&quot;font-size: 20px;&quot;&gt;SANGUINEO&lt;/font&gt;&lt;/p&gt;" style="text;html=1;align=center;verticalAlign=middle;whiteSpace=wrap;rounded=0;" vertex="1" parent="F_5CZEHVWxJ2lF3WmD1E-30">
          <mxGeometry x="20" y="5" width="140" height="70" as="geometry" />
        </mxCell>
        <mxCell id="F_5CZEHVWxJ2lF3WmD1E-37" value="" style="endArrow=classic;html=1;rounded=0;strokeWidth=2;" edge="1" parent="F_5CZEHVWxJ2lF3WmD1E-30">
          <mxGeometry width="50" height="50" relative="1" as="geometry">
            <mxPoint x="106" y="80" as="sourcePoint" />
            <mxPoint x="106" y="150" as="targetPoint" />
          </mxGeometry>
        </mxCell>
        <mxCell id="F_5CZEHVWxJ2lF3WmD1E-31" value="" style="group" vertex="1" connectable="0" parent="1">
          <mxGeometry x="308.5" y="130" width="211" height="80" as="geometry" />
        </mxCell>
        <mxCell id="F_5CZEHVWxJ2lF3WmD1E-3" value="" style="ellipse;whiteSpace=wrap;html=1;fillColor=#b1ddf0;strokeColor=#10739e;strokeWidth=2;" vertex="1" parent="F_5CZEHVWxJ2lF3WmD1E-31">
          <mxGeometry x="22.210526315789473" width="166.57894736842104" height="80" as="geometry" />
        </mxCell>
        <mxCell id="F_5CZEHVWxJ2lF3WmD1E-16" value="&lt;p&gt;&lt;font face=&quot;Verdana&quot; style=&quot;font-size: 20px;&quot;&gt;INICIO&lt;/font&gt;&lt;/p&gt;" style="text;html=1;align=center;verticalAlign=middle;whiteSpace=wrap;rounded=0;" vertex="1" parent="F_5CZEHVWxJ2lF3WmD1E-31">
          <mxGeometry y="22.857142857142854" width="211" height="34.285714285714285" as="geometry" />
        </mxCell>
        <mxCell id="F_5CZEHVWxJ2lF3WmD1E-40" value="" style="endArrow=classic;html=1;rounded=0;strokeWidth=2;entryX=0.567;entryY=0.075;entryDx=0;entryDy=0;entryPerimeter=0;" edge="1" parent="F_5CZEHVWxJ2lF3WmD1E-31" target="F_5CZEHVWxJ2lF3WmD1E-8">
          <mxGeometry width="50" height="50" relative="1" as="geometry">
            <mxPoint x="113.5" y="60" as="sourcePoint" />
            <mxPoint x="119.5" y="134" as="targetPoint" />
          </mxGeometry>
        </mxCell>
        <mxCell id="F_5CZEHVWxJ2lF3WmD1E-32" value="" style="group" vertex="1" connectable="0" parent="1">
          <mxGeometry x="335.5" y="1050" width="157" height="80" as="geometry" />
        </mxCell>
        <mxCell id="F_5CZEHVWxJ2lF3WmD1E-6" value="" style="ellipse;whiteSpace=wrap;html=1;fillColor=#b1ddf0;strokeColor=#10739e;strokeWidth=2;" vertex="1" parent="F_5CZEHVWxJ2lF3WmD1E-32">
          <mxGeometry width="157" height="80" as="geometry" />
        </mxCell>
        <mxCell id="F_5CZEHVWxJ2lF3WmD1E-17" value="&lt;p&gt;&lt;font face=&quot;Verdana&quot; style=&quot;font-size: 20px;&quot;&gt;FIM&lt;/font&gt;&lt;/p&gt;" style="text;html=1;align=center;verticalAlign=middle;whiteSpace=wrap;rounded=0;" vertex="1" parent="F_5CZEHVWxJ2lF3WmD1E-32">
          <mxGeometry x="45.228476821192054" y="25" width="79.01986754966887" height="30" as="geometry" />
        </mxCell>
      </root>
    </mxGraphModel>
  </diagram>
</mxfile>
